# xmcd
#
# Track frame offsets:
#	150
#	10800
#	22122
#	35882
#	48910
#	61625
#	74207
#	85047
#	95375
#	109920
#	124772
#	137682
#	149412
#	162310
#	171480
#	182725
#	193360
#	207770
#
# Disc length: 2944 seconds
#
# Revision: 1
# Processed by: cddbd v1.5.2PL0 Copyright (c) Steve Scherf et al.
# Submitted via: audiograbber 1.83.01
#
DISCID=0d0b7e12
DTITLE=Frankie Laine - Frankie Laine
DYEAR=1997
DGENRE=western
TTITLE0=A woman in love
TTITLE1=Answer me (Mutterlein)
TTITLE2=Cool water
TTITLE3=Cry of the wild goose
TTITLE4=Granada
TTITLE5=High noon
TTITLE6=Humming bird
TTITLE7=I believe
TTITLE8=Jealousy
TTITLE9=Jezebel
TTITLE10=Moonlight gambler
TTITLE11=Mule train
TTITLE12=Rain, rain, rain
TTITLE13=Rawhide
TTITLE14=Rose, Rose I love you
TTITLE15=Sixteens tons
TTITLE16=There must be a reason
TTITLE17=Wheel of Fortune
EXTD=
EXTT0=
EXTT1=
EXTT2=
EXTT3=
EXTT4=
EXTT5=
EXTT6=
EXTT7=
EXTT8=
EXTT9=
EXTT10=
EXTT11=
EXTT12=
EXTT13=
EXTT14=
EXTT15=
EXTT16=
EXTT17=
PLAYORDER=
